<?xml version="1.0" encoding="utf-8"?>
<!-- Generator: Adobe Illustrator 15.0.0, SVG Export Plug-In . SVG Version: 6.00 Build 0)  -->
<!DOCTYPE svg PUBLIC "-//W3C//DTD SVG 1.1//EN" "http://www.w3.org/Graphics/SVG/1.1/DTD/svg11.dtd">
<svg version="1.1" id="Layer_1" xmlns="http://www.w3.org/2000/svg" xmlns:xlink="http://www.w3.org/1999/xlink" x="0px" y="0px"
	 width="340.542px" height="210.812px" viewBox="0 0 340.542 210.812" enable-background="new 0 0 340.542 210.812"
	 xml:space="preserve">
<g>
	<g>
		<g>
			<path d="M340.542,198.812c0,6.627-5.373,12-12,12H12c-6.627,0-12-5.373-12-12V12C0,5.373,5.373,0,12,0h316.542
				c6.627,0,12,5.373,12,12V198.812z"/>
			
				<text transform="matrix(-4.371139e-08 -1 1 -4.371139e-08 299.3159 117.9072)" fill="#FFFFFF" font-family="'ArialMT'" font-size="10">COIN</text>
		</g>
		<g>
			<path fill="none" stroke="#FFFFFF" stroke-miterlimit="10" d="M331.154,191.161c0,6.083-5.077,11.017-11.339,11.017H20.726
				c-6.261,0-11.338-4.934-11.338-11.017V19.654c0-6.088,5.077-11.018,11.338-11.018h299.089c6.262,0,11.339,4.93,11.339,11.018
				V191.161z"/>
			<polygon fill="#FFFFFF" points="331.45,168.687 323.534,164.116 331.45,159.546 			"/>
			<polygon fill="#FFFFFF" points="9.388,159.546 17.304,164.116 9.388,168.687 			"/>
		</g>
		<g>
			<circle fill="none" stroke="#FFFFFF" stroke-miterlimit="10" cx="124.175" cy="61.542" r="19.917"/>
			<circle fill="none" stroke="#FFFFFF" stroke-width="5" stroke-miterlimit="10" cx="123.932" cy="61.543" r="15.051"/>
		</g>
		<g>
			<path fill="#414042" d="M68.97,17.543c2.761,0,5,2.238,5,5v78c0,2.762-2.238,5.001-5,5.001H22.304c-2.761,0-5-2.239-5-5.001v-78
				c0-2.762,2.239-5,5-5H68.97z"/>
			<g>
				<path fill="#FFFFFF" d="M39.895,94.379l1.559,1.723l-0.928,1.027h-7.264l-1.261-1.357l1.261-1.393H39.895z M53.527,95.771
					l-1.228,1.357l-1.26-1.357V84.994l1.26-1.357l1.228,1.357V95.771z M40.691,84.664l1.244-1.395l1.244,1.395v9.568l-1.244,1.355
					l-1.244-1.355V84.664z M31.571,81.768l1.26,1.375v10.762l-1.26,1.354l-1.228-1.355V83.123L31.571,81.768z M50.575,81.768
					l1.261,1.375l-1.261,1.375h-6.633l-1.56-1.748l0.962-1.002H50.575z"/>
				<path fill="#FFFFFF" d="M40.528,77.369H30.335l2.481-2.75h7.082l1.555,1.723L40.528,77.369z M43.943,74.619h7.103l2.489,2.75
					h-10.19l-0.962-1.027L43.943,74.619z M40.691,64.904l1.244-1.395l1.244,1.395v9.568l-1.244,1.355l-1.244-1.355V64.904z
					 M39.895,64.758h-7.098l-2.487-2.75h10.215l0.928,1.002L39.895,64.758z M43.344,62.008h10.182l-2.487,2.75h-7.098l-1.56-1.748
					L43.344,62.008z"/>
				<path fill="#FFFFFF" d="M39.895,54.859l1.559,1.723l-0.928,1.027h-7.264l-1.26-1.357l1.26-1.393H39.895z M50.575,57.609
					l1.26-1.357l-1.26-1.393h-6.633l-1.559,1.723l0.962,1.027H50.575z M31.57,44.117l1.26,1.357v8.908l-1.26,1.355l-1.227-1.355
					v-8.908L31.57,44.117z M53.526,54.383l-1.227,1.355l-1.26-1.355v-8.908l1.26-1.357l1.227,1.357V54.383z M40.525,42.248
					l0.928,1.002l-1.559,1.748h-6.633l-1.26-1.375l1.26-1.375H40.525z M50.575,42.248l1.26,1.375l-1.26,1.375h-6.633l-1.559-1.748
					l0.962-1.002H50.575z"/>
				<path fill="#FFFFFF" d="M39.895,35.1l1.559,1.723l-0.928,1.027h-9.751l2.487-2.75H39.895z M51.045,35.1l2.49,2.75h-10.19
					l-0.962-1.027l1.56-1.723H51.045z M31.57,24.357l1.26,1.357v8.908l-2.487,2.713V25.715L31.57,24.357z M40.691,25.385
					l1.244-1.395l1.244,1.395v9.568l-1.244,1.355l-1.244-1.355V25.385z M40.525,22.488l0.928,1.002l-1.559,1.748h-6.633l-1.26-1.375
					l1.26-1.375H40.525z"/>
			</g>
			<g>
				<path fill="#FFFFFF" d="M63.923,97.119l0.77,0.768l-0.458,0.459h-4.812l1.228-1.227H63.923z M69.193,97.119l1.228,1.227h-4.795
					l-0.475-0.459l0.77-0.768H69.193z M59.211,91.719l1.227,1.211v3.977l-1.227,1.211V91.719z M70.649,91.719v6.398l-1.227-1.211
					V92.93L70.649,91.719z M64.235,91.488l0.458,0.449l-0.77,0.779h-3.272l-1.228-1.229H64.235z M70.42,91.488l-1.228,1.229H65.92
					l-0.77-0.779l0.475-0.449H70.42z"/>
				<path fill="#FFFFFF" d="M64.235,89.525h-4.812l1.228-1.227h3.272l0.77,0.77L64.235,89.525z M65.92,88.299h3.272l1.228,1.227
					h-4.795l-0.475-0.457L65.92,88.299z M59.211,82.898l1.227,1.211v3.977l-1.227,1.211V82.898z M70.649,82.898v6.398l-1.227-1.211
					v-3.977L70.649,82.898z M64.317,83.963l0.613-0.623l0.613,0.623v4.27l-0.613,0.605l-0.613-0.605V83.963z M63.923,83.896h-3.272
					l-1.228-1.227h4.812l0.458,0.447L63.923,83.896z M65.625,82.67h4.795l-1.228,1.227H65.92l-0.77-0.779L65.625,82.67z"/>
				<path fill="#FFFFFF" d="M63.923,79.479l0.77,0.77l-0.458,0.457h-4.812l1.228-1.227H63.923z M69.193,79.479l1.228,1.227h-4.795
					l-0.475-0.457l0.77-0.77H69.193z M59.211,74.078l1.227,1.211v3.977l-1.227,1.211V74.078z M70.649,74.078v6.398l-1.227-1.211
					v-3.977L70.649,74.078z M64.235,73.85l0.458,0.447l-0.77,0.779h-3.272l-1.228-1.227H64.235z M70.42,73.85l-1.228,1.227H65.92
					l-0.77-0.779l0.475-0.447H70.42z"/>
				<path fill="#FFFFFF" d="M63.923,70.658l0.77,0.77l-0.458,0.459h-4.812l1.228-1.229H63.923z M69.193,70.658l1.228,1.229h-4.795
					l-0.475-0.459l0.77-0.77H69.193z M59.211,65.26l1.227,1.211v3.975l-1.227,1.211V65.26z M70.649,65.26v6.396l-1.227-1.211v-3.975
					L70.649,65.26z M64.235,65.029l0.458,0.447l-0.77,0.781h-3.272l-1.228-1.229H64.235z M70.42,65.029l-1.228,1.229H65.92
					l-0.77-0.781l0.475-0.447H70.42z"/>
			</g>
			<g>
				<path fill="#FFFFFF" d="M63.923,52.926h-3.275l-1.228-1.229h4.814l0.458,0.459L63.923,52.926z M65.625,51.697h4.798
					l-1.228,1.229H65.92l-0.77-0.77L65.625,51.697z"/>
				<path fill="#FFFFFF" d="M63.923,48.229h-3.275l-1.228-1.227h4.814l0.458,0.459L63.923,48.229z M65.625,47.002h4.798
					l-1.228,1.227H65.92l-0.77-0.768L65.625,47.002z"/>
				<path fill="#FFFFFF" d="M65.416,41.236l5.171,2.984l-1.67,0.453l-3.827-2.229l-0.295-1.029L65.416,41.236z M63.355,41.463
					l-3.829-2.209l-0.451-1.686l5.146,2.996l0.176,0.621L63.355,41.463z"/>
				<path fill="#FFFFFF" d="M63.923,35.254h-3.275l-1.228-1.229h4.814l0.458,0.459L63.923,35.254z M65.625,34.025h4.798
					l-1.228,1.229H65.92l-0.77-0.77L65.625,34.025z"/>
				<path fill="#FFFFFF" d="M64.234,31.311h-4.811l1.228-1.229h3.272l0.769,0.77L64.234,31.311z M59.211,24.684l1.227,1.211v3.975
					l-1.227,1.211V24.684z M70.649,24.684v6.396l-1.227-1.211v-3.975L70.649,24.684z M64.316,25.746l0.613-0.621l0.614,0.621v4.271
					l-0.614,0.605l-0.613-0.605V25.746z M65.625,24.453h4.794l-1.228,1.229H65.92L65.151,24.9L65.625,24.453z"/>
			</g>
			
				<text transform="matrix(-4.371139e-08 -1 1 -4.371139e-08 25.3159 73.6597)" fill="#FFFFFF" font-family="'Arial-BoldMT'" font-size="6">V1</text>
		</g>
	</g>
	<circle fill="#39B54A" cx="123.931" cy="109.994" r="1.833"/>
</g>
</svg>
